# xmcd
#
# Track frame offsets: 
#        150
#        22376
#        45088
#        62602
#        83099
#        103756
#        129450
#        144165
#        170316
#        196954
#        210787
#        238176
#
# Disc length: 3347 seconds
#
# Revision: 0
# Processed by: cddbd v1.5.2PL0 Copyright (c) Steve Scherf et al.
# Submitted via: ExactAudioCopy v1.0b1
#
DISCID=970d110c
DTITLE=Pat Travers Band - Can Do
DYEAR=2013
DGENRE=Blues
TTITLE0=Can Do
TTITLE1=Stand Up - Give It Up
TTITLE2=Diamond Girl
TTITLE3=As Long as I'm with You
TTITLE4=Long Time Gone
TTITLE5=Wanted (That Was Then - This Is Now)
TTITLE6=Armed and Dangerous
TTITLE7=Here Comes the Rain Again
TTITLE8=Keep Calm and Carry On
TTITLE9=Dust and Bone
TTITLE10=Waitin' on the End of Time
TTITLE11=Red Neck Boogie
EXTD=
EXTT0=
EXTT1=
EXTT2=
EXTT3=
EXTT4=
EXTT5=
EXTT6=
EXTT7=
EXTT8=
EXTT9=
EXTT10=
EXTT11=
PLAYORDER=
